<svg xmlns="http://www.w3.org/2000/svg" viewBox="0 0 32 32">
  <rect width="32" height="32" rx="7" fill="#169bde"/>
  <path transform="translate(5.2 5.2) scale(0.302)" fill="#ffffff" d="M35.4,1.2C15.8,1.2,0,17,0,36.5s15.8,35.4,35.4,35.4c19.5,0,35.4-15.8,35.4-35.4S54.9,1.2,35.4,1.2z M47.3,43.7c-1,8.7-2.9,5-3.9-0.1c-0.9-4.7-3.9-2.5-4.5,1.3c-1.4,8.4-2.4,11-3.5,11s-2.1-2.6-3.5-11c-0.6-3.8-3.2-5.9-4.5-1.3c-1.1,4-2.2,4.8-3.4,0.1c-1.2-5-13-6-20.7-6.1c0.1,0,0.1,0,0.2,0c-0.1,0-0.2,0-0.2,0c7.7-0.1,19.5-1.1,20.7-6.1c1.2-4.7,2.3-3.9,3.4,0.1c1.3,4.6,3.9,2.5,4.5-1.3c1.4-8.4,2.4-11,3.5-11s2.1,2.6,3.5,11c0.6,3.8,3.4,6,4.5,1.3c1.2-5.2,1.8-8.6,3.9-0.1c1.2,5,12.5,6,20.2,6.1c-0.1,0-0.1,0-0.2,0c0.1,0,0.2,0,0.2,0C59.7,37.7,47.8,38.6,47.3,43.7z"/>
</svg>
